<?xml version="1.0" encoding="UTF-8" standalone="no"?>
<!DOCTYPE svg PUBLIC "-//W3C//DTD SVG 1.1//EN" "http://www.w3.org/Graphics/SVG/1.1/DTD/svg11.dtd">
<svg width="100%" height="100%" viewBox="0 0 1764 296" version="1.1" xmlns="http://www.w3.org/2000/svg" xmlns:xlink="http://www.w3.org/1999/xlink" xml:space="preserve" xmlns:serif="http://www.serif.com/" style="fill-rule:evenodd;clip-rule:evenodd;stroke-linejoin:round;stroke-miterlimit:2;">
    <g transform="matrix(15.3757,0,0,15.3757,-3211.91,-13121.3)">
        <clipPath id="_clip1">
            <path d="M210.728,862.044C210.741,862.151 210.761,862.348 210.761,862.514C210.761,862.514 210.761,867.307 210.761,867.307C210.761,868.455 210.875,869.342 211.072,869.97C211.315,870.744 211.751,871.376 212.376,871.868C213.018,872.374 213.774,872.635 214.649,872.635C215.376,872.635 216.068,872.462 216.722,872.114C216.862,872.039 217.02,871.939 217.194,871.811C217.333,872.287 217.772,872.635 218.293,872.635L218.82,872.635C218.97,872.635 219.119,872.606 219.257,872.549L222.468,871.224C223.048,870.985 223.328,870.323 223.094,869.741L222.93,869.331C222.815,869.043 222.589,868.814 222.302,868.697C222.016,868.579 221.694,868.582 221.41,868.706L221.403,868.709C221.378,868.361 221.372,867.768 221.372,866.932L221.372,860.428C221.372,859.795 220.859,859.283 220.227,859.283L216.57,859.283C215.938,859.283 215.426,859.795 215.426,860.428L215.426,860.861C215.426,861.484 215.923,861.992 216.545,862.006C216.74,862.01 216.972,862.045 217.114,862.07C217.13,862.173 217.148,862.32 217.148,862.443C217.148,862.443 217.148,868.043 217.148,868.043C216.817,868.353 216.527,868.578 216.267,868.706C216.029,868.825 215.821,868.904 215.633,868.904C215.45,868.904 215.29,868.855 215.159,868.746C215.146,868.713 215.082,868.548 215.06,868.431C215.016,868.201 214.997,867.928 214.997,867.611L214.997,860.428C214.997,859.795 214.484,859.283 213.852,859.283L210.09,859.283C209.458,859.283 208.945,859.795 208.945,860.428L208.945,860.861C208.945,861.168 209.068,861.461 209.286,861.676C209.504,861.892 209.8,862.01 210.106,862.006C210.335,862.003 210.61,862.03 210.728,862.044ZM223.315,862.899C223.341,863.258 223.347,863.876 223.347,864.752L223.347,868.736C223.347,869.054 223.297,869.403 223.267,869.582C223.213,869.589 223.149,869.595 223.097,869.595L222.863,869.595C222.231,869.595 221.718,870.108 221.718,870.74L221.718,871.162C221.718,871.794 222.231,872.307 222.863,872.307L228.172,872.307C228.343,872.307 228.506,872.269 228.652,872.202C228.798,872.269 228.961,872.307 229.133,872.307L234.441,872.307C235.073,872.307 235.586,871.794 235.586,871.162L235.586,870.74C235.586,870.108 235.073,869.595 234.441,869.595C234.279,869.595 234.091,869.576 233.98,869.564C233.939,869.391 233.945,869.113 233.945,868.736L233.945,864.154C233.945,863.007 233.821,862.159 233.618,861.604C233.617,861.602 233.616,861.6 233.616,861.599C233.269,860.666 232.774,860.017 232.188,859.61C231.583,859.19 230.864,858.966 230.023,858.966C229.228,858.966 228.389,859.233 227.529,859.805C227.395,859.321 226.952,858.966 226.425,858.966L225.922,858.966C225.774,858.966 225.628,858.995 225.491,859.05L222.257,860.363C221.974,860.478 221.748,860.701 221.631,860.983C221.513,861.265 221.513,861.582 221.63,861.864L221.806,862.286C222.045,862.858 222.695,863.137 223.274,862.914C223.288,862.909 223.301,862.904 223.315,862.899ZM229.701,869.567C229.707,869.449 229.722,869.088 229.722,868.736L229.722,864.342C229.722,863.631 229.678,863.107 229.494,862.786C229.44,862.693 229.329,862.698 229.203,862.698C228.645,862.698 228.116,863.005 227.57,863.537L227.57,868.736C227.57,869.053 227.595,869.388 227.61,869.56C227.746,869.575 227.971,869.595 228.172,869.595C228.343,869.595 228.506,869.633 228.652,869.701C228.798,869.633 228.961,869.595 229.133,869.595L229.355,869.595C229.47,869.595 229.612,869.579 229.701,869.567ZM242.182,857.269C242.207,857.618 242.214,858.203 242.214,859.021L242.214,859.094C241.839,859.001 241.44,858.955 241.015,858.955C239.122,858.955 237.568,859.737 236.364,861.324C235.237,862.81 234.678,864.45 234.678,866.24C234.678,868.093 235.228,869.601 236.282,870.782C237.397,872.032 238.712,872.635 240.206,872.635C240.961,872.635 241.664,872.477 242.316,872.166C242.345,872.152 242.375,872.138 242.404,872.123C242.609,872.432 242.96,872.635 243.359,872.635L243.898,872.635C244.048,872.635 244.198,872.605 244.337,872.547L247.524,871.223C248.072,870.996 248.355,870.388 248.177,869.823L248.049,869.412C247.954,869.112 247.74,868.864 247.457,868.726C247.174,868.588 246.846,868.573 246.552,868.685C246.523,868.695 246.496,868.706 246.469,868.716C246.443,868.366 246.437,867.763 246.437,866.908L246.437,854.498C246.437,853.866 245.925,853.353 245.292,853.353L244.765,853.353C244.616,853.353 244.468,853.382 244.33,853.439L241.131,854.751C240.56,854.985 240.277,855.63 240.492,856.209L240.645,856.619C240.75,856.904 240.965,857.135 241.241,857.262C241.517,857.388 241.833,857.4 242.117,857.294C242.14,857.285 242.161,857.277 242.182,857.269ZM242.214,868.652C241.916,868.906 241.618,869.056 241.296,869.056C240.767,869.056 240.316,868.742 239.885,868.216C239.338,867.547 239.113,866.571 239.113,865.314C239.113,864.089 239.339,863.143 239.896,862.506C239.896,862.506 239.897,862.505 239.897,862.505C240.188,862.171 240.502,861.971 240.874,861.971C241.057,861.971 241.241,862.041 241.434,862.152C241.642,862.272 241.802,862.456 241.927,862.691C242.084,862.983 242.177,863.305 242.214,863.657C242.214,863.658 242.214,868.652 242.214,868.652L242.214,868.652ZM251.287,865.616L257.479,865.616C258.112,865.616 258.624,865.103 258.624,864.471C258.624,862.804 258.109,861.484 257.139,860.489C256.15,859.476 254.892,858.955 253.354,858.955C251.593,858.955 250.131,859.595 248.965,860.867C247.851,862.083 247.252,863.763 247.252,865.935C247.252,867.959 247.833,869.559 248.929,870.757C250.08,872.016 251.468,872.635 253.085,872.635C254.614,872.635 255.886,872.068 256.902,870.937C257.849,869.881 258.414,868.707 258.611,867.421C258.679,866.975 258.479,866.531 258.1,866.286L257.737,866.051C257.446,865.864 257.085,865.818 256.756,865.927C256.427,866.035 256.166,866.287 256.044,866.612C255.788,867.295 255.504,867.8 255.126,868.081C254.801,868.323 254.415,868.435 253.975,868.435C253.248,868.435 252.627,868.098 252.089,867.473C251.666,866.983 251.408,866.361 251.287,865.616L251.287,865.616ZM253.655,862.646C253.561,862.492 253.44,862.366 253.289,862.268C253.1,862.146 252.905,862.076 252.698,862.076C252.346,862.076 252.039,862.23 251.761,862.503C251.715,862.548 251.673,862.596 251.633,862.646L251.633,862.646L253.655,862.646ZM259.429,862.874C259.448,863.209 259.451,863.78 259.451,864.588L259.451,868.748C259.451,869.076 259.435,869.419 259.427,869.558C259.3,869.601 259.124,869.595 258.908,869.595C258.276,869.595 257.763,870.108 257.763,870.74L257.763,871.162C257.763,871.794 258.276,872.307 258.908,872.307L264.405,872.307C265.037,872.307 265.549,871.794 265.549,871.162L265.549,870.74C265.549,870.108 265.037,869.595 264.405,869.595C264.161,869.595 263.969,869.595 263.84,869.524C263.818,869.512 263.786,869.49 263.772,869.479C263.688,869.289 263.674,869.011 263.674,868.654C263.674,868.654 263.674,863.792 263.674,863.792C263.841,863.483 264.001,863.226 264.16,863.025C264.739,863.474 265.285,863.647 265.752,863.647C266.352,863.647 266.871,863.429 267.303,862.98C267.716,862.551 267.928,862.031 267.928,861.412C267.928,860.754 267.68,860.166 267.142,859.666C266.653,859.211 266.042,858.966 265.295,858.966C264.723,858.966 264.128,859.156 263.537,859.567C263.344,859.209 262.965,858.966 262.53,858.966L262.037,858.966C261.89,858.966 261.745,858.995 261.608,859.05L258.362,860.362C257.822,860.58 257.532,861.169 257.688,861.73L257.805,862.152C257.892,862.463 258.105,862.723 258.394,862.868C258.682,863.013 259.018,863.03 259.319,862.914C259.357,862.9 259.394,862.886 259.429,862.874ZM278.1,867.313C278.205,866.8 277.948,866.281 277.476,866.053L277.136,865.889C276.855,865.753 276.53,865.738 276.238,865.847C275.945,865.957 275.71,866.181 275.587,866.468C275.273,867.198 274.982,867.721 274.65,867.999C274.646,868.002 274.642,868.005 274.638,868.008C274.249,868.343 273.812,868.517 273.322,868.517C272.651,868.517 272.131,868.188 271.737,867.573C271.223,866.772 270.975,865.846 270.975,864.799C270.975,863.847 271.183,863.072 271.662,862.493C271.662,862.493 271.662,862.492 271.663,862.492C271.915,862.186 272.252,862.041 272.666,862.041C272.824,862.041 272.958,862.039 273.049,862.111C273.119,862.178 273.126,862.286 273.137,862.409C273.209,863.176 273.424,863.677 273.645,863.954C274.086,864.509 274.719,864.83 275.584,864.83C276.273,864.83 276.795,864.605 277.179,864.236C277.592,863.84 277.819,863.33 277.819,862.689C277.819,861.797 277.39,860.893 276.381,860.065C275.509,859.348 274.405,858.966 273.053,858.966C271.325,858.966 269.841,859.608 268.608,860.904C267.409,862.163 266.786,863.792 266.786,865.807C266.786,867.872 267.359,869.5 268.434,870.714C269.581,872.009 270.936,872.635 272.478,872.635C273.78,872.635 274.973,872.166 276.046,871.197C277.054,870.288 277.755,869.002 278.1,867.313ZM284.243,858.966C283.15,858.966 282.114,859.249 281.135,859.819C280.159,860.389 279.36,861.259 278.761,862.451C278.188,863.593 277.907,864.744 277.907,865.9C277.907,867.503 278.384,868.949 279.339,870.237C280.52,871.834 282.111,872.635 284.115,872.635C285.328,872.635 286.429,872.326 287.418,871.714C288.407,871.102 289.193,870.203 289.757,868.999C290.294,867.851 290.556,866.716 290.556,865.596C290.556,863.96 290.055,862.513 289.055,861.252C289.054,861.251 289.053,861.25 289.053,861.249C287.842,859.731 286.241,858.966 284.243,858.966ZM283.88,862.018C284.371,862.018 284.764,862.251 285.081,862.679C285.082,862.681 285.084,862.683 285.085,862.685C285.778,863.609 286.087,864.887 286.087,866.498C286.087,867.679 285.975,868.528 285.594,869.012C285.336,869.339 285.015,869.513 284.618,869.513C283.998,869.513 283.547,869.1 283.167,868.408C282.631,867.431 282.377,866.264 282.377,864.916C282.377,864.128 282.465,863.48 282.675,862.978C282.82,862.632 282.979,862.367 283.213,862.229C283.438,862.096 283.658,862.018 283.88,862.018ZM291.205,862.09C291.296,862.139 291.374,862.195 291.434,862.265C291.535,862.385 291.626,862.59 291.737,862.864C291.739,862.868 291.741,862.873 291.743,862.878L295.575,871.936C295.754,872.36 296.17,872.635 296.63,872.635L297.11,872.635C297.574,872.635 297.991,872.356 298.168,871.928L301.977,862.717C301.979,862.713 301.98,862.709 301.982,862.704C302.097,862.418 302.203,862.189 302.337,862.041C302.397,862.029 302.506,862.009 302.589,862.003C303.185,861.957 303.646,861.459 303.646,860.861L303.646,860.428C303.646,859.795 303.133,859.283 302.501,859.283L298.997,859.283C298.365,859.283 297.852,859.795 297.852,860.428L297.852,860.861C297.852,861.46 298.311,861.951 298.897,862.002L297.433,865.592C297.433,865.592 296.009,862.21 296.009,862.21C296.007,862.205 296.005,862.2 296.003,862.195C295.974,862.129 295.947,862.066 295.925,862.006L295.973,862.006C296.606,862.006 297.118,861.494 297.118,860.861L297.118,860.428C297.118,859.795 296.606,859.283 295.973,859.283L290.923,859.283C290.29,859.283 289.778,859.795 289.778,860.428L289.778,860.861C289.778,861.424 290.186,861.903 290.742,861.992C290.932,862.022 291.16,862.078 291.205,862.09ZM306.984,865.616L313.176,865.616C313.808,865.616 314.321,865.103 314.321,864.471C314.321,862.804 313.806,861.484 312.836,860.489C311.847,859.476 310.589,858.955 309.051,858.955C307.29,858.955 305.828,859.595 304.662,860.867C303.548,862.083 302.949,863.763 302.949,865.935C302.949,867.959 303.53,869.559 304.626,870.757C305.777,872.016 307.165,872.635 308.782,872.635C310.31,872.635 311.582,872.068 312.598,870.937C313.546,869.881 314.111,868.707 314.308,867.421C314.376,866.975 314.176,866.531 313.797,866.286L313.434,866.051C313.142,865.864 312.782,865.818 312.453,865.927C312.124,866.035 311.862,866.287 311.741,866.612C311.484,867.295 311.201,867.8 310.823,868.081C310.497,868.323 310.112,868.435 309.672,868.435C308.945,868.435 308.324,868.098 307.785,867.473C307.363,866.983 307.105,866.361 306.984,865.616L306.984,865.616ZM309.352,862.646C309.258,862.492 309.137,862.366 308.986,862.268C308.797,862.146 308.601,862.076 308.395,862.076C308.043,862.076 307.736,862.23 307.458,862.503C307.412,862.548 307.37,862.596 307.33,862.646L307.33,862.646L309.352,862.646ZM315.126,862.874C315.145,863.209 315.148,863.78 315.148,864.588L315.148,868.748C315.148,869.076 315.132,869.419 315.124,869.558C314.997,869.601 314.821,869.595 314.605,869.595C313.973,869.595 313.46,870.108 313.46,870.74L313.46,871.162C313.46,871.794 313.973,872.307 314.605,872.307L320.101,872.307C320.734,872.307 321.246,871.794 321.246,871.162L321.246,870.74C321.246,870.108 320.734,869.595 320.101,869.595C319.858,869.595 319.666,869.595 319.536,869.524C319.514,869.512 319.483,869.49 319.469,869.479C319.385,869.289 319.371,869.011 319.371,868.654L319.371,863.792C319.538,863.483 319.698,863.226 319.857,863.025C320.436,863.474 320.981,863.647 321.449,863.647C322.048,863.647 322.568,863.429 323,862.98C323.413,862.551 323.625,862.031 323.625,861.412C323.625,860.754 323.376,860.166 322.838,859.666C322.35,859.211 321.739,858.966 320.992,858.966C320.42,858.966 319.825,859.156 319.234,859.567C319.041,859.209 318.662,858.966 318.226,858.966L317.734,858.966C317.587,858.966 317.441,858.995 317.305,859.05L314.059,860.362C313.519,860.58 313.229,861.169 313.385,861.73L313.502,862.152C313.589,862.463 313.802,862.723 314.091,862.868C314.379,863.013 314.715,863.03 315.016,862.914C315.054,862.9 315.091,862.886 315.126,862.874Z" clip-rule="nonzero"/>
        </clipPath>
        <g clip-path="url(#_clip1)">
            <g transform="matrix(0.0650376,-0,-0,0.0650376,208.895,853.375)">
                <path d="M28.186,133.279C28.387,134.935 28.705,137.954 28.705,140.505C28.705,140.505 28.705,214.2 28.705,214.2C28.705,231.861 30.443,245.496 33.479,255.155C37.219,267.056 43.919,276.772 53.525,284.338C63.398,292.113 75.018,296.13 88.472,296.13C99.664,296.13 110.292,293.473 120.348,288.12C122.504,286.972 124.927,285.424 127.607,283.464C129.741,290.783 136.501,296.13 144.51,296.13L152.618,296.13C154.921,296.13 157.201,295.679 159.33,294.801L208.7,274.44C217.621,270.761 221.918,260.586 218.334,251.627L215.811,245.32C214.043,240.899 210.558,237.382 206.153,235.573C201.747,233.764 196.797,233.817 192.431,235.72L192.326,235.766C191.937,230.412 191.845,221.299 191.845,208.434L191.845,108.432C191.845,98.709 183.963,90.827 174.24,90.827L118.023,90.827C108.3,90.827 100.418,98.709 100.418,108.432L100.418,115.099C100.418,124.669 108.063,132.486 117.631,132.699C120.633,132.766 124.195,133.303 126.386,133.685C126.626,135.275 126.905,137.531 126.905,139.424C126.905,139.424 126.905,225.531 126.905,225.531C121.82,230.287 117.354,233.745 113.361,235.723C109.692,237.541 106.502,238.759 103.608,238.759C100.798,238.759 98.342,238.016 96.313,236.328C96.115,235.825 95.14,233.296 94.792,231.482C94.115,227.954 93.824,223.752 93.824,218.885L93.824,108.432C93.824,98.709 85.943,90.827 76.22,90.827L18.381,90.827C8.658,90.827 0.776,98.709 0.776,108.432L0.776,115.099C0.776,119.81 2.664,124.325 6.019,127.633C9.374,130.941 13.914,132.767 18.625,132.702C22.146,132.653 26.372,133.075 28.186,133.279Z" style="fill:rgb(7,73,87);"/>
            </g>
            <g transform="matrix(0.0650376,-0,-0,0.0650376,208.895,853.375)">
                <path d="M221.722,146.426C222.119,151.953 222.215,161.453 222.215,174.92L222.215,236.182C222.215,241.065 221.441,246.44 220.985,249.182C220.152,249.29 219.17,249.389 218.378,249.389L214.774,249.389C205.052,249.389 197.17,257.271 197.17,266.994L197.17,273.481C197.17,283.203 205.052,291.085 214.774,291.085L296.398,291.085C299.037,291.085 301.54,290.505 303.785,289.465C306.031,290.505 308.534,291.085 311.173,291.085L392.796,291.085C402.519,291.085 410.401,283.203 410.401,273.481L410.401,266.994C410.401,257.271 402.519,249.389 392.796,249.389C390.311,249.389 387.415,249.102 385.71,248.904C385.074,246.247 385.175,241.98 385.175,236.182L385.175,165.73C385.175,148.093 383.264,135.05 380.135,126.516C380.125,126.49 380.116,126.463 380.106,126.437C374.77,112.098 367.156,102.116 358.152,95.864C348.846,89.401 337.792,85.962 324.867,85.962C312.637,85.962 299.735,90.068 286.519,98.862C284.461,91.423 277.644,85.962 269.55,85.962L261.802,85.962C259.533,85.962 257.285,86.401 255.183,87.254L205.452,107.435C201.099,109.201 197.633,112.634 195.824,116.969C194.016,121.304 194.014,126.182 195.821,130.518L198.524,137.005C202.191,145.805 212.196,150.088 221.094,146.665C221.307,146.583 221.516,146.503 221.722,146.426ZM319.919,248.95C320.003,247.138 320.236,241.598 320.236,236.182L320.236,168.613C320.236,157.684 319.566,149.628 316.724,144.688C315.903,143.26 314.2,143.334 312.254,143.334C303.67,143.334 295.547,148.06 287.155,156.235L287.155,236.182C287.155,241.05 287.534,246.21 287.761,248.855C289.854,249.079 293.32,249.389 296.398,249.389C299.037,249.389 301.54,249.97 303.785,251.01C306.031,249.97 308.534,249.389 311.173,249.389L314.596,249.389C316.36,249.389 318.544,249.137 319.919,248.95Z" style="fill:rgb(7,73,87);"/>
            </g>
            <g transform="matrix(0.0650376,-0,-0,0.0650376,208.895,853.375)">
                <path d="M511.826,59.872C512.209,65.239 512.305,74.22 512.305,86.81L512.305,87.928C506.545,86.503 500.404,85.782 493.873,85.782C464.769,85.782 440.874,97.807 422.367,122.209C405.038,145.058 396.446,170.273 396.446,197.803C396.446,226.292 404.9,249.486 421.097,267.634C438.249,286.854 458.469,296.13 481.44,296.13C493.039,296.13 503.847,293.703 513.879,288.922C514.33,288.707 514.783,288.486 515.237,288.257C518.389,293.002 523.784,296.13 529.909,296.13L538.198,296.13C540.516,296.13 542.811,295.673 544.952,294.783L593.962,274.422C602.379,270.926 606.736,261.582 604.003,252.887L602.021,246.58C600.569,241.961 597.278,238.143 592.924,236.026C588.569,233.909 583.534,233.679 579.005,235.39C578.566,235.555 578.144,235.716 577.735,235.868C577.338,230.485 577.244,221.218 577.244,208.074L577.244,17.259C577.244,7.536 569.363,-0.346 559.64,-0.346L551.532,-0.346C549.24,-0.346 546.97,0.101 544.85,0.971L495.659,21.152C486.878,24.755 482.533,34.671 485.838,43.569L488.181,49.875C489.807,54.254 493.107,57.807 497.353,59.752C501.6,61.696 506.445,61.874 510.823,60.245C511.167,60.117 511.501,59.992 511.826,59.872ZM512.304,234.881C507.725,238.8 503.147,241.101 498.197,241.101C490.065,241.101 483.129,236.279 476.503,228.184C468.085,217.901 464.629,202.891 464.629,183.569C464.629,164.732 468.1,150.18 476.67,140.385C476.674,140.381 476.677,140.377 476.681,140.373C481.163,135.241 485.994,132.163 491.71,132.163C494.527,132.163 497.348,133.242 500.314,134.95C503.51,136.79 505.968,139.617 507.905,143.232C510.309,147.719 511.746,152.68 512.304,158.089C512.305,158.097 512.305,234.88 512.305,234.88L512.304,234.881Z" style="fill:rgb(7,73,87);"/>
            </g>
            <g transform="matrix(0.0650376,-0,-0,0.0650376,208.895,853.375)">
                <path d="M651.818,188.2L747.024,188.2C756.747,188.2 764.629,180.318 764.629,170.595C764.629,144.973 756.71,124.681 741.789,109.383C726.586,93.796 707.249,85.782 683.599,85.782C656.521,85.782 634.043,95.622 616.114,115.187C598.985,133.88 589.777,159.714 589.777,193.118C589.777,224.233 598.713,248.827 615.561,267.252C633.259,286.606 654.603,296.13 679.455,296.13C702.964,296.13 722.521,287.415 738.142,270.016C752.713,253.786 761.396,235.731 764.426,215.966C765.477,209.106 762.4,202.268 756.568,198.506L750.983,194.902C746.507,192.015 740.965,191.309 735.909,192.982C730.852,194.655 726.825,198.527 724.955,203.514C721.014,214.022 716.659,221.78 710.836,226.115C705.839,229.835 699.913,231.551 693.149,231.551C681.967,231.551 672.423,226.368 664.14,216.76C657.647,209.228 653.671,199.668 651.818,188.2L651.818,188.2ZM688.228,142.54C686.786,140.179 684.923,138.231 682.601,136.73C679.69,134.848 676.685,133.784 673.509,133.784C668.099,133.784 663.373,136.141 659.104,140.345C658.401,141.037 657.747,141.769 657.139,142.54L657.139,142.54L688.228,142.54Z" style="fill:rgb(7,73,87);"/>
            </g>
            <g transform="matrix(0.0650376,-0,-0,0.0650376,208.895,853.375)">
                <path d="M777.006,146.053C777.296,151.202 777.342,159.985 777.342,172.397L777.342,236.363C777.342,241.414 777.092,246.681 776.978,248.817C775.024,249.48 772.317,249.389 769,249.389C759.277,249.389 751.395,257.271 751.395,266.994L751.395,273.481C751.395,283.203 759.277,291.085 769,291.085L853.506,291.085C863.229,291.085 871.111,283.203 871.111,273.481L871.111,266.994C871.111,257.271 863.229,249.389 853.506,249.389C849.763,249.389 846.811,249.382 844.819,248.296C844.481,248.112 844,247.77 843.776,247.607C842.485,244.686 842.281,240.414 842.281,234.921C842.281,234.921 842.281,160.155 842.281,160.155C844.844,155.409 847.299,151.459 849.744,148.371C858.656,155.268 867.037,157.929 874.227,157.929C883.442,157.929 891.424,154.582 898.08,147.671C904.42,141.086 907.688,133.078 907.688,123.567C907.688,113.457 903.861,104.413 895.59,96.715C888.076,89.723 878.679,85.962 867.2,85.962C858.402,85.962 849.253,88.877 840.172,95.205C837.195,89.701 831.373,85.962 824.677,85.962L817.109,85.962C814.847,85.962 812.607,86.398 810.51,87.246L760.599,107.426C752.299,110.782 747.839,119.833 750.235,128.459L752.037,134.946C753.366,139.728 756.651,143.727 761.084,145.959C765.518,148.19 770.687,148.447 775.319,146.665C775.898,146.443 776.46,146.237 777.006,146.053Z" style="fill:rgb(7,73,87);"/>
            </g>
            <g transform="matrix(0.0650376,-0,-0,0.0650376,208.895,853.375)">
                <path d="M1064.08,214.302C1065.7,206.408 1061.75,198.426 1054.49,194.923L1049.27,192.4C1044.94,190.312 1039.95,190.082 1035.45,191.763C1030.95,193.444 1027.33,196.89 1025.44,201.303C1020.61,212.525 1016.14,220.574 1011.04,224.841C1010.98,224.89 1010.92,224.94 1010.86,224.99C1004.87,230.137 998.147,232.812 990.619,232.812C980.302,232.812 972.309,227.75 966.247,218.299C958.346,205.981 954.529,191.737 954.529,175.641C954.529,161.01 957.728,149.094 965.089,140.188C965.093,140.183 965.098,140.177 965.103,140.171C968.984,135.463 974.167,133.244 980.529,133.244C982.954,133.244 985.02,133.205 986.428,134.311C987.496,135.351 987.599,137.006 987.775,138.895C988.875,150.692 992.192,158.391 995.59,162.647C1002.36,171.19 1012.1,176.128 1025.39,176.128C1036,176.128 1044.02,172.656 1049.92,166.994C1056.27,160.903 1059.76,153.057 1059.76,143.207C1059.76,129.483 1053.16,115.593 1037.65,102.849C1024.25,91.835 1007.27,85.962 986.475,85.962C959.909,85.962 937.102,95.83 918.136,115.754C899.706,135.117 890.13,160.156 890.13,191.136C890.13,222.901 898.933,247.933 915.456,266.593C933.091,286.509 953.929,296.13 977.646,296.13C997.658,296.13 1016.01,288.919 1032.51,274.025C1048,260.04 1058.78,240.265 1064.08,214.302Z" style="fill:rgb(168,184,191);"/>
            </g>
            <g transform="matrix(0.0650376,-0,-0,0.0650376,208.895,853.375)">
                <path d="M1158.54,85.962C1141.73,85.962 1125.8,90.307 1110.75,99.081C1095.74,107.839 1083.45,121.218 1074.25,139.543C1065.43,157.108 1061.12,174.802 1061.12,192.578C1061.12,217.229 1068.45,239.457 1083.13,259.265C1101.29,283.821 1125.75,296.13 1156.56,296.13C1175.22,296.13 1192.14,291.372 1207.35,281.967C1222.56,272.564 1234.65,258.737 1243.32,240.225C1251.58,222.579 1255.61,205.119 1255.61,187.893C1255.61,162.752 1247.89,140.495 1232.52,121.101C1232.51,121.087 1232.5,121.073 1232.49,121.06C1213.88,97.725 1189.26,85.962 1158.54,85.962ZM1152.96,132.883C1160.5,132.883 1166.55,136.463 1171.42,143.045C1171.44,143.076 1171.46,143.108 1171.49,143.139C1182.15,157.351 1186.89,176.999 1186.89,201.767C1186.89,219.92 1185.17,232.979 1179.31,240.426C1175.35,245.453 1170.4,248.128 1164.31,248.128C1154.77,248.128 1147.83,241.782 1142,231.142C1133.76,216.109 1129.84,198.178 1129.84,177.442C1129.84,165.327 1131.2,155.37 1134.43,147.651C1136.65,142.326 1139.09,138.248 1142.7,136.125C1146.15,134.091 1149.54,132.883 1152.96,132.883Z" style="fill:rgb(168,184,191);"/>
            </g>
            <g transform="matrix(0.0650376,-0,-0,0.0650376,208.895,853.375)">
                <path d="M1265.58,133.985C1266.98,134.739 1268.17,135.606 1269.1,136.689C1269.1,136.689 1269.1,136.689 1269.1,136.689C1270.66,138.522 1272.05,141.673 1273.77,145.885C1273.8,145.958 1273.83,146.03 1273.86,146.102L1332.78,285.385C1335.53,291.898 1341.92,296.13 1348.99,296.13L1356.38,296.13C1363.5,296.13 1369.92,291.836 1372.65,285.253L1431.21,143.628C1431.23,143.565 1431.26,143.502 1431.28,143.439C1433.05,139.03 1434.68,135.517 1436.74,133.233C1437.67,133.052 1439.34,132.749 1440.61,132.651C1449.79,131.946 1456.87,124.298 1456.87,115.099L1456.87,108.432C1456.87,98.709 1448.99,90.827 1439.26,90.827L1385.39,90.827C1375.67,90.827 1367.78,98.709 1367.78,108.432L1367.78,115.099C1367.78,124.301 1374.85,131.855 1383.85,132.636L1361.34,187.843C1361.34,187.843 1339.45,135.837 1339.45,135.837C1339.42,135.761 1339.39,135.686 1339.35,135.611C1338.91,134.589 1338.5,133.622 1338.16,132.703L1338.9,132.703C1348.62,132.703 1356.51,124.821 1356.51,115.099L1356.51,108.432C1356.51,98.709 1348.62,90.827 1338.9,90.827L1261.24,90.827C1251.52,90.827 1243.64,98.709 1243.64,108.432L1243.64,115.099C1243.64,123.748 1249.92,131.116 1258.46,132.482C1261.39,132.951 1264.89,133.812 1265.58,133.985Z" style="fill:rgb(168,184,191);"/>
            </g>
            <g transform="matrix(0.0650376,-0,-0,0.0650376,208.895,853.375)">
                <path d="M1508.2,188.2L1603.4,188.2C1613.13,188.2 1621.01,180.318 1621.01,170.595C1621.01,144.973 1613.09,124.681 1598.17,109.383C1582.97,93.796 1563.63,85.782 1539.98,85.782C1512.9,85.782 1490.42,95.622 1472.49,115.187C1455.37,133.88 1446.16,159.714 1446.16,193.118C1446.16,224.233 1455.09,248.827 1471.94,267.252C1489.64,286.606 1510.98,296.13 1535.84,296.13C1559.34,296.13 1578.9,287.415 1594.52,270.016C1609.09,253.786 1617.78,235.731 1620.81,215.966C1621.86,209.106 1618.78,202.268 1612.95,198.506L1607.36,194.902C1602.89,192.015 1597.35,191.309 1592.29,192.982C1587.23,194.655 1583.2,198.527 1581.34,203.514C1577.39,214.022 1573.04,221.78 1567.22,226.115C1562.22,229.835 1556.29,231.551 1549.53,231.551C1538.35,231.551 1528.8,226.368 1520.52,216.76C1514.03,209.228 1510.05,199.668 1508.2,188.2L1508.2,188.2ZM1544.61,142.54C1543.17,140.179 1541.3,138.231 1538.98,136.73C1536.07,134.848 1533.07,133.784 1529.89,133.784C1524.48,133.784 1519.75,136.141 1515.48,140.345C1514.78,141.037 1514.13,141.769 1513.52,142.54L1513.52,142.54L1544.61,142.54Z" style="fill:rgb(168,184,191);"/>
            </g>
            <g transform="matrix(0.0650376,-0,-0,0.0650376,208.895,853.375)">
                <path d="M1633.39,146.053C1633.68,151.202 1633.72,159.985 1633.72,172.397L1633.72,236.363C1633.72,241.414 1633.47,246.681 1633.36,248.817C1631.4,249.48 1628.7,249.389 1625.38,249.389C1615.66,249.389 1607.78,257.271 1607.78,266.994L1607.78,273.481C1607.78,283.203 1615.66,291.085 1625.38,291.085L1709.89,291.085C1719.61,291.085 1727.49,283.203 1727.49,273.481L1727.49,266.994C1727.49,257.271 1719.61,249.389 1709.89,249.389C1706.14,249.389 1703.19,249.382 1701.2,248.296C1700.86,248.112 1700.38,247.77 1700.16,247.607C1698.87,244.686 1698.66,240.414 1698.66,234.921L1698.66,160.155C1701.22,155.409 1703.68,151.459 1706.12,148.371C1715.04,155.268 1723.42,157.929 1730.61,157.929C1739.82,157.929 1747.8,154.582 1754.46,147.671C1760.8,141.086 1764.07,133.078 1764.07,123.567C1764.07,113.457 1760.24,104.413 1751.97,96.715C1744.46,89.723 1735.06,85.962 1723.58,85.962C1714.78,85.962 1705.63,88.877 1696.55,95.205C1693.58,89.701 1687.75,85.962 1681.06,85.962L1673.49,85.962C1671.23,85.962 1668.99,86.398 1666.89,87.246L1616.98,107.426C1608.68,110.782 1604.22,119.833 1606.62,128.459L1608.42,134.946C1609.75,139.728 1613.03,143.727 1617.46,145.959C1621.9,148.19 1627.07,148.447 1631.7,146.665C1632.28,146.443 1632.84,146.237 1633.39,146.053Z" style="fill:rgb(168,184,191);"/>
            </g>
        </g>
    </g>
    <g transform="matrix(15.3757,0,0,15.3757,-3211.91,-13121.3)">
        <text x="210.067px" y="871.162px" style="font-family:'TimesNewRomanPSMT', 'Times New Roman', serif;font-size:24px;fill:rgb(168,184,191);">u<tspan x="222.547px 235.027px 247.507px 258.639px " y="871.162px 871.162px 871.162px 871.162px ">nder</tspan></text>
        <text x="267.111px" y="871.162px" style="font-family:'TimesNewRomanPSMT', 'Times New Roman', serif;font-size:24px;fill:rgb(7,73,87);">c<tspan x="278.243px 290.723px 303.203px 314.336px " y="871.162px 871.162px 871.162px 871.162px ">over</tspan></text>
    </g>
</svg>
