<?xml version="1.0" encoding="UTF-8" standalone="no"?>
<!DOCTYPE svg PUBLIC "-//W3C//DTD SVG 1.1//EN" "http://www.w3.org/Graphics/SVG/1.1/DTD/svg11.dtd">
<svg width="100%" height="100%" viewBox="0 0 1983 300" version="1.1" xmlns="http://www.w3.org/2000/svg" xmlns:xlink="http://www.w3.org/1999/xlink" xml:space="preserve" xmlns:serif="http://www.serif.com/" style="fill-rule:evenodd;clip-rule:evenodd;stroke-linejoin:round;stroke-miterlimit:2;">
    <g transform="matrix(15.3757,0,0,15.3757,-3102.91,-13119.3)">
        <clipPath id="_clip1">
            <path d="M210.728,862.044C210.741,862.151 210.761,862.348 210.761,862.514L210.761,867.307C210.761,868.455 210.875,869.342 211.072,869.97C211.315,870.744 211.751,871.376 212.376,871.868C213.018,872.374 213.774,872.635 214.649,872.635C215.376,872.635 216.068,872.462 216.722,872.114C216.862,872.039 217.02,871.939 217.194,871.811C217.333,872.287 217.772,872.635 218.293,872.635L218.82,872.635C218.97,872.635 219.119,872.606 219.257,872.549L222.468,871.224C223.048,870.985 223.328,870.323 223.094,869.741L222.93,869.331C222.815,869.043 222.589,868.814 222.302,868.697C222.016,868.579 221.694,868.582 221.41,868.706L221.403,868.709C221.378,868.361 221.372,867.768 221.372,866.932C221.372,866.932 221.372,860.428 221.372,860.428C221.372,859.795 220.859,859.283 220.227,859.283L216.57,859.283C215.938,859.283 215.426,859.795 215.426,860.428L215.426,860.861C215.426,861.484 215.923,861.992 216.545,862.006C216.74,862.01 216.972,862.045 217.114,862.07C217.13,862.173 217.148,862.32 217.148,862.443L217.148,868.043C216.817,868.353 216.527,868.578 216.267,868.706C216.029,868.825 215.821,868.904 215.633,868.904C215.45,868.904 215.29,868.855 215.159,868.746C215.146,868.713 215.082,868.548 215.06,868.431C215.016,868.201 214.997,867.928 214.997,867.611L214.997,860.428C214.997,859.795 214.484,859.283 213.852,859.283L210.09,859.283C209.458,859.283 208.945,859.795 208.945,860.428L208.945,860.861C208.945,861.168 209.068,861.461 209.286,861.676C209.504,861.892 209.8,862.01 210.106,862.006C210.335,862.003 210.61,862.03 210.728,862.044ZM223.315,862.899C223.341,863.258 223.347,863.876 223.347,864.752L223.347,868.736C223.347,869.054 223.297,869.403 223.267,869.582C223.213,869.589 223.149,869.595 223.097,869.595L222.863,869.595C222.231,869.595 221.718,870.108 221.718,870.74L221.718,871.162C221.718,871.794 222.231,872.307 222.863,872.307L228.172,872.307C228.343,872.307 228.506,872.269 228.652,872.202C228.798,872.269 228.961,872.307 229.133,872.307L234.441,872.307C235.073,872.307 235.586,871.794 235.586,871.162L235.586,870.74C235.586,870.108 235.073,869.595 234.441,869.595C234.279,869.595 234.091,869.576 233.98,869.564C233.939,869.391 233.945,869.113 233.945,868.736C233.945,868.736 233.945,864.154 233.945,864.154C233.945,863.007 233.821,862.159 233.618,861.604C233.617,861.602 233.616,861.6 233.616,861.599C233.269,860.666 232.774,860.017 232.188,859.61C231.583,859.19 230.864,858.966 230.023,858.966C229.228,858.966 228.389,859.233 227.529,859.805C227.395,859.321 226.952,858.966 226.425,858.966L225.922,858.966C225.774,858.966 225.628,858.995 225.491,859.05L222.257,860.363C221.974,860.478 221.748,860.701 221.631,860.983C221.513,861.265 221.513,861.582 221.63,861.864L221.806,862.286C222.045,862.858 222.695,863.137 223.274,862.914C223.288,862.909 223.301,862.904 223.315,862.899ZM229.701,869.567C229.707,869.449 229.722,869.088 229.722,868.736C229.722,868.736 229.722,864.342 229.722,864.342C229.722,863.631 229.678,863.107 229.494,862.786C229.44,862.693 229.329,862.698 229.203,862.698C228.645,862.698 228.116,863.005 227.57,863.537L227.57,868.736C227.57,869.053 227.595,869.388 227.61,869.56C227.746,869.575 227.971,869.595 228.172,869.595C228.343,869.595 228.506,869.633 228.652,869.701C228.798,869.633 228.961,869.595 229.133,869.595L229.355,869.595C229.47,869.595 229.612,869.579 229.701,869.567ZM242.182,857.269C242.207,857.618 242.214,858.203 242.214,859.021L242.214,859.094C241.839,859.001 241.44,858.955 241.015,858.955C239.122,858.955 237.568,859.737 236.364,861.324C235.237,862.81 234.678,864.45 234.678,866.24C234.678,868.093 235.228,869.601 236.282,870.782C237.397,872.032 238.712,872.635 240.206,872.635C240.961,872.635 241.664,872.477 242.316,872.166C242.345,872.152 242.375,872.138 242.404,872.123C242.609,872.432 242.96,872.635 243.359,872.635L243.898,872.635C244.048,872.635 244.198,872.605 244.337,872.547L247.524,871.223C248.072,870.996 248.355,870.388 248.177,869.823L248.049,869.412C247.954,869.112 247.74,868.864 247.457,868.726C247.174,868.588 246.846,868.573 246.552,868.685C246.523,868.695 246.496,868.706 246.469,868.716C246.443,868.366 246.437,867.763 246.437,866.908C246.437,866.908 246.437,854.498 246.437,854.498C246.437,853.866 245.925,853.353 245.292,853.353L244.765,853.353C244.616,853.353 244.468,853.382 244.33,853.439L241.131,854.751C240.56,854.985 240.277,855.63 240.492,856.209L240.645,856.619C240.75,856.904 240.965,857.135 241.241,857.262C241.517,857.388 241.833,857.4 242.117,857.294C242.14,857.285 242.161,857.277 242.182,857.269ZM242.214,868.652C241.916,868.906 241.618,869.056 241.296,869.056C240.767,869.056 240.316,868.742 239.885,868.216C239.338,867.547 239.113,866.571 239.113,865.314C239.113,864.089 239.339,863.143 239.896,862.506C239.896,862.506 239.897,862.505 239.897,862.505C240.188,862.171 240.502,861.971 240.874,861.971C241.057,861.971 241.241,862.041 241.434,862.152C241.642,862.272 241.802,862.456 241.927,862.691C242.084,862.983 242.177,863.305 242.214,863.657C242.214,863.658 242.214,868.652 242.214,868.652L242.214,868.652ZM251.287,865.616L257.479,865.616C258.112,865.616 258.624,865.103 258.624,864.471C258.624,862.804 258.109,861.484 257.139,860.489C256.15,859.476 254.892,858.955 253.354,858.955C251.593,858.955 250.131,859.595 248.965,860.867C247.851,862.083 247.252,863.763 247.252,865.935C247.252,867.959 247.833,869.559 248.929,870.757C250.08,872.016 251.468,872.635 253.085,872.635C254.614,872.635 255.886,872.068 256.902,870.937C257.849,869.881 258.414,868.707 258.611,867.421C258.679,866.975 258.479,866.531 258.1,866.286L257.737,866.051C257.446,865.864 257.085,865.818 256.756,865.927C256.427,866.035 256.166,866.287 256.044,866.612C255.788,867.295 255.504,867.8 255.126,868.081C254.801,868.323 254.415,868.435 253.975,868.435C253.248,868.435 252.627,868.098 252.089,867.473C251.666,866.983 251.408,866.361 251.287,865.616L251.287,865.616ZM253.655,862.646C253.561,862.492 253.44,862.366 253.289,862.268C253.1,862.146 252.905,862.076 252.698,862.076C252.346,862.076 252.039,862.23 251.761,862.503C251.715,862.548 251.673,862.596 251.633,862.646L251.633,862.646L253.655,862.646ZM259.429,862.874C259.448,863.209 259.451,863.78 259.451,864.588L259.451,868.748C259.451,869.076 259.435,869.419 259.427,869.558C259.3,869.601 259.124,869.595 258.908,869.595C258.276,869.595 257.763,870.108 257.763,870.74L257.763,871.162C257.763,871.794 258.276,872.307 258.908,872.307L264.405,872.307C265.037,872.307 265.549,871.794 265.549,871.162L265.549,870.74C265.549,870.108 265.037,869.595 264.405,869.595C264.161,869.595 263.969,869.595 263.84,869.524C263.818,869.512 263.786,869.49 263.772,869.479C263.688,869.289 263.674,869.011 263.674,868.654L263.674,863.792C263.841,863.483 264.001,863.226 264.16,863.025C264.739,863.474 265.285,863.647 265.752,863.647C266.352,863.647 266.871,863.429 267.303,862.98C267.716,862.551 267.928,862.031 267.928,861.412C267.928,860.754 267.68,860.166 267.142,859.666C266.653,859.211 266.042,858.966 265.295,858.966C264.723,858.966 264.128,859.156 263.537,859.567C263.344,859.209 262.965,858.966 262.53,858.966L262.037,858.966C261.89,858.966 261.745,858.995 261.608,859.05L258.362,860.362C257.822,860.58 257.532,861.169 257.688,861.73L257.805,862.152C257.892,862.463 258.105,862.723 258.394,862.868C258.682,863.013 259.018,863.03 259.319,862.914C259.357,862.9 259.394,862.886 259.429,862.874ZM278.1,867.313C278.205,866.8 277.948,866.281 277.476,866.053L277.136,865.889C276.855,865.753 276.53,865.738 276.238,865.847C275.945,865.957 275.71,866.181 275.587,866.468C275.273,867.198 274.982,867.721 274.65,867.999C274.646,868.002 274.642,868.005 274.638,868.008C274.249,868.343 273.812,868.517 273.322,868.517C272.651,868.517 272.131,868.188 271.737,867.573C271.223,866.772 270.975,865.846 270.975,864.799C270.975,863.847 271.183,863.072 271.662,862.493C271.662,862.493 271.662,862.492 271.663,862.492C271.915,862.186 272.252,862.041 272.666,862.041C272.824,862.041 272.958,862.039 273.049,862.111C273.119,862.178 273.126,862.286 273.137,862.409C273.209,863.176 273.424,863.677 273.645,863.954C274.086,864.509 274.719,864.83 275.584,864.83C276.273,864.83 276.795,864.605 277.179,864.236C277.592,863.84 277.819,863.33 277.819,862.689C277.819,861.797 277.39,860.893 276.381,860.065C275.509,859.348 274.405,858.966 273.053,858.966C271.325,858.966 269.841,859.608 268.608,860.904C267.409,862.163 266.786,863.792 266.786,865.807C266.786,867.872 267.359,869.5 268.434,870.714C269.581,872.009 270.936,872.635 272.478,872.635C273.78,872.635 274.973,872.166 276.046,871.197C277.054,870.288 277.755,869.002 278.1,867.313ZM284.243,858.966C283.15,858.966 282.114,859.249 281.135,859.819C280.159,860.389 279.36,861.259 278.761,862.451C278.188,863.593 277.907,864.744 277.907,865.9C277.907,867.503 278.384,868.949 279.339,870.237C280.52,871.834 282.111,872.635 284.115,872.635C285.328,872.635 286.429,872.326 287.418,871.714C288.407,871.102 289.193,870.203 289.757,868.999C290.294,867.851 290.556,866.716 290.556,865.596C290.556,863.96 290.055,862.513 289.055,861.252C289.054,861.251 289.053,861.25 289.053,861.249C287.842,859.731 286.241,858.966 284.243,858.966ZM283.88,862.018C284.371,862.018 284.764,862.251 285.081,862.679C285.082,862.681 285.084,862.683 285.085,862.685C285.778,863.609 286.087,864.887 286.087,866.498C286.087,867.679 285.975,868.528 285.594,869.012C285.336,869.339 285.015,869.513 284.618,869.513C283.998,869.513 283.547,869.1 283.167,868.408C282.631,867.431 282.377,866.264 282.377,864.916C282.377,864.128 282.465,863.48 282.675,862.978C282.82,862.632 282.979,862.367 283.213,862.229C283.438,862.096 283.658,862.018 283.88,862.018ZM291.205,862.09C291.296,862.139 291.374,862.195 291.434,862.265C291.535,862.385 291.626,862.59 291.737,862.864C291.739,862.868 291.741,862.873 291.743,862.878L295.575,871.936C295.754,872.36 296.17,872.635 296.63,872.635L297.11,872.635C297.574,872.635 297.991,872.356 298.168,871.928L301.977,862.717C301.979,862.713 301.98,862.709 301.982,862.704C302.097,862.418 302.203,862.189 302.337,862.041C302.397,862.029 302.506,862.009 302.589,862.003C303.185,861.957 303.646,861.459 303.646,860.861L303.646,860.428C303.646,859.795 303.133,859.283 302.501,859.283L298.997,859.283C298.365,859.283 297.852,859.795 297.852,860.428L297.852,860.861C297.852,861.46 298.311,861.951 298.897,862.002L297.433,865.592C297.433,865.592 296.009,862.21 296.009,862.21C296.007,862.205 296.005,862.2 296.003,862.195C295.974,862.129 295.947,862.066 295.925,862.006L295.973,862.006C296.606,862.006 297.118,861.494 297.118,860.861L297.118,860.428C297.118,859.795 296.606,859.283 295.973,859.283L290.923,859.283C290.29,859.283 289.778,859.795 289.778,860.428L289.778,860.861C289.778,861.424 290.186,861.903 290.742,861.992C290.932,862.022 291.16,862.078 291.205,862.09ZM306.984,865.616L313.176,865.616C313.808,865.616 314.321,865.103 314.321,864.471C314.321,862.804 313.806,861.484 312.836,860.489C311.847,859.476 310.589,858.955 309.051,858.955C307.29,858.955 305.828,859.595 304.662,860.867C303.548,862.083 302.949,863.763 302.949,865.935C302.949,867.959 303.53,869.559 304.626,870.757C305.777,872.016 307.165,872.635 308.782,872.635C310.31,872.635 311.582,872.068 312.598,870.937C313.546,869.881 314.111,868.707 314.308,867.421C314.376,866.975 314.176,866.531 313.797,866.286L313.434,866.051C313.142,865.864 312.782,865.818 312.453,865.927C312.124,866.035 311.862,866.287 311.741,866.612C311.484,867.295 311.201,867.8 310.823,868.081C310.497,868.323 310.112,868.435 309.672,868.435C308.945,868.435 308.324,868.098 307.785,867.473C307.363,866.983 307.105,866.361 306.984,865.616L306.984,865.616ZM309.352,862.646C309.258,862.492 309.137,862.366 308.986,862.268C308.797,862.146 308.601,862.076 308.395,862.076C308.043,862.076 307.736,862.23 307.458,862.503C307.412,862.548 307.37,862.596 307.33,862.646L307.33,862.646L309.352,862.646ZM315.126,862.874C315.145,863.209 315.148,863.78 315.148,864.588L315.148,868.748C315.148,869.076 315.132,869.419 315.124,869.558C314.997,869.601 314.821,869.595 314.605,869.595C313.973,869.595 313.46,870.108 313.46,870.74L313.46,871.162C313.46,871.794 313.973,872.307 314.605,872.307L320.101,872.307C320.734,872.307 321.246,871.794 321.246,871.162L321.246,870.74C321.246,870.108 320.734,869.595 320.101,869.595C319.858,869.595 319.666,869.595 319.536,869.524C319.514,869.512 319.483,869.49 319.469,869.479C319.385,869.289 319.371,869.011 319.371,868.654L319.371,863.792C319.538,863.483 319.698,863.226 319.857,863.025C320.436,863.474 320.981,863.647 321.449,863.647C322.048,863.647 322.568,863.429 323,862.98C323.413,862.551 323.625,862.031 323.625,861.412C323.625,860.754 323.376,860.166 322.838,859.666C322.35,859.211 321.739,858.966 320.992,858.966C320.42,858.966 319.825,859.156 319.234,859.567C319.041,859.209 318.662,858.966 318.226,858.966L317.734,858.966C317.587,858.966 317.441,858.995 317.305,859.05L314.059,860.362C313.519,860.58 313.229,861.169 313.385,861.73L313.502,862.152C313.589,862.463 313.802,862.723 314.091,862.868C314.379,863.013 314.715,863.03 315.016,862.914C315.054,862.9 315.091,862.886 315.126,862.874Z" clip-rule="nonzero"/>
        </clipPath>
        <g clip-path="url(#_clip1)">
            <g transform="matrix(0.0650376,-0,-0,0.0650376,201.805,853.245)">
                <path d="M137.186,135.279C137.387,136.935 137.705,139.954 137.705,142.505L137.705,216.2C137.705,233.861 139.443,247.496 142.479,257.155C146.219,269.056 152.919,278.772 162.525,286.338C172.398,294.113 184.018,298.13 197.472,298.13C208.664,298.13 219.292,295.473 229.348,290.12C231.504,288.972 233.927,287.424 236.607,285.464C238.741,292.783 245.501,298.13 253.51,298.13L261.618,298.13C263.921,298.13 266.201,297.679 268.33,296.801L317.7,276.44C326.621,272.761 330.918,262.586 327.334,253.627L324.811,247.32C323.043,242.899 319.558,239.382 315.153,237.573C310.747,235.764 305.797,235.817 301.431,237.72L301.326,237.766C300.937,232.412 300.845,223.299 300.845,210.434C300.845,210.434 300.845,110.432 300.845,110.432C300.845,100.709 292.963,92.827 283.24,92.827L227.023,92.827C217.3,92.827 209.418,100.709 209.418,110.432L209.418,117.099C209.418,126.669 217.063,134.486 226.631,134.699C229.633,134.766 233.195,135.303 235.386,135.685C235.626,137.275 235.905,139.531 235.905,141.424L235.905,227.531C230.82,232.287 226.354,235.745 222.361,237.723C218.692,239.541 215.502,240.759 212.608,240.759C209.798,240.759 207.342,240.016 205.313,238.328C205.115,237.825 204.14,235.296 203.792,233.482C203.115,229.954 202.824,225.752 202.824,220.885L202.824,110.432C202.824,100.709 194.943,92.827 185.22,92.827L127.381,92.827C117.658,92.827 109.776,100.709 109.776,110.432L109.776,117.099C109.776,121.81 111.664,126.325 115.019,129.633C118.374,132.941 122.914,134.767 127.625,134.702C131.146,134.653 135.372,135.075 137.186,135.279Z" style="fill:rgb(7,73,87);"/>
            </g>
            <g transform="matrix(0.0650376,-0,-0,0.0650376,201.805,853.245)">
                <path d="M330.722,148.426C331.119,153.953 331.215,163.453 331.215,176.92L331.215,238.182C331.215,243.065 330.441,248.44 329.985,251.182C329.152,251.29 328.17,251.389 327.378,251.389L323.774,251.389C314.052,251.389 306.17,259.271 306.17,268.994L306.17,275.481C306.17,285.203 314.052,293.085 323.774,293.085L405.398,293.085C408.037,293.085 410.54,292.505 412.785,291.465C415.031,292.505 417.534,293.085 420.173,293.085L501.796,293.085C511.519,293.085 519.401,285.203 519.401,275.481L519.401,268.994C519.401,259.271 511.519,251.389 501.796,251.389C499.311,251.389 496.415,251.102 494.71,250.904C494.074,248.247 494.175,243.98 494.175,238.182C494.175,238.182 494.175,167.73 494.175,167.73C494.175,150.093 492.264,137.05 489.135,128.516C489.125,128.49 489.116,128.463 489.106,128.437C483.77,114.098 476.156,104.116 467.152,97.864C457.846,91.401 446.792,87.962 433.867,87.962C421.637,87.962 408.735,92.068 395.519,100.862C393.461,93.423 386.644,87.962 378.55,87.962L370.802,87.962C368.533,87.962 366.285,88.401 364.183,89.254L314.452,109.435C310.099,111.201 306.633,114.634 304.824,118.969C303.016,123.304 303.014,128.182 304.821,132.518L307.524,139.005C311.191,147.805 321.196,152.088 330.094,148.665C330.307,148.583 330.516,148.503 330.722,148.426ZM428.919,250.95C429.003,249.138 429.236,243.598 429.236,238.182C429.236,238.182 429.236,170.613 429.236,170.613C429.236,159.684 428.566,151.628 425.724,146.688C424.903,145.26 423.2,145.334 421.254,145.334C412.67,145.334 404.547,150.06 396.155,158.235L396.155,238.182C396.155,243.05 396.534,248.21 396.761,250.855C398.854,251.079 402.32,251.389 405.398,251.389C408.037,251.389 410.54,251.97 412.785,253.01C415.031,251.97 417.534,251.389 420.173,251.389L423.596,251.389C425.36,251.389 427.544,251.137 428.919,250.95Z" style="fill:rgb(7,73,87);"/>
            </g>
            <g transform="matrix(0.0650376,-0,-0,0.0650376,201.805,853.245)">
                <path d="M620.826,61.872C621.209,67.239 621.305,76.22 621.305,88.81L621.305,89.928C615.545,88.503 609.404,87.782 602.873,87.782C573.769,87.782 549.874,99.807 531.367,124.209C514.038,147.058 505.446,172.273 505.446,199.803C505.446,228.292 513.9,251.486 530.097,269.634C547.249,288.854 567.469,298.13 590.44,298.13C602.039,298.13 612.847,295.703 622.879,290.922C623.33,290.707 623.783,290.486 624.237,290.257C627.389,295.002 632.784,298.13 638.909,298.13L647.198,298.13C649.516,298.13 651.811,297.673 653.952,296.783L702.962,276.422C711.379,272.926 715.736,263.582 713.003,254.887L711.021,248.58C709.569,243.961 706.278,240.143 701.924,238.026C697.569,235.909 692.534,235.679 688.005,237.39C687.566,237.555 687.144,237.716 686.735,237.868C686.338,232.485 686.244,223.218 686.244,210.074C686.244,210.074 686.244,19.259 686.244,19.259C686.244,9.536 678.363,1.654 668.64,1.654L660.532,1.654C658.24,1.654 655.97,2.101 653.85,2.971L604.659,23.152C595.878,26.755 591.533,36.671 594.838,45.569L597.181,51.875C598.807,56.254 602.107,59.807 606.353,61.752C610.6,63.696 615.445,63.874 619.823,62.245C620.167,62.117 620.501,61.992 620.826,61.872ZM621.304,236.881C616.725,240.8 612.147,243.101 607.197,243.101C599.065,243.101 592.129,238.279 585.503,230.184C577.085,219.901 573.629,204.891 573.629,185.569C573.629,166.732 577.1,152.18 585.67,142.385C585.674,142.381 585.677,142.377 585.681,142.373C590.163,137.241 594.994,134.163 600.71,134.163C603.527,134.163 606.348,135.242 609.314,136.95C612.51,138.79 614.968,141.617 616.905,145.232C619.309,149.719 620.746,154.68 621.304,160.089C621.305,160.097 621.305,236.88 621.305,236.88L621.304,236.881Z" style="fill:rgb(7,73,87);"/>
            </g>
            <g transform="matrix(0.0650376,-0,-0,0.0650376,201.805,853.245)">
                <path d="M760.818,190.2L856.024,190.2C865.747,190.2 873.629,182.318 873.629,172.595C873.629,146.973 865.71,126.681 850.789,111.383C835.586,95.796 816.249,87.782 792.599,87.782C765.521,87.782 743.043,97.622 725.114,117.187C707.985,135.88 698.777,161.714 698.777,195.118C698.777,226.233 707.713,250.827 724.561,269.252C742.259,288.606 763.603,298.13 788.455,298.13C811.964,298.13 831.521,289.415 847.142,272.016C861.713,255.786 870.396,237.731 873.426,217.966C874.477,211.106 871.4,204.268 865.568,200.506L859.983,196.902C855.507,194.015 849.965,193.309 844.909,194.982C839.852,196.655 835.825,200.527 833.955,205.514C830.014,216.022 825.659,223.78 819.836,228.115C814.839,231.835 808.913,233.551 802.149,233.551C790.967,233.551 781.423,228.368 773.14,218.76C766.647,211.228 762.671,201.668 760.818,190.2L760.818,190.2ZM797.228,144.54C795.786,142.179 793.923,140.231 791.601,138.73C788.69,136.848 785.685,135.784 782.509,135.784C777.099,135.784 772.373,138.141 768.104,142.345C767.401,143.037 766.747,143.769 766.139,144.54L766.139,144.54L797.228,144.54Z" style="fill:rgb(7,73,87);"/>
            </g>
            <g transform="matrix(0.0650376,-0,-0,0.0650376,201.805,853.245)">
                <path d="M886.006,148.053C886.296,153.202 886.342,161.985 886.342,174.397L886.342,238.363C886.342,243.414 886.092,248.681 885.978,250.817C884.024,251.48 881.317,251.389 878,251.389C868.277,251.389 860.395,259.271 860.395,268.994L860.395,275.481C860.395,285.203 868.277,293.085 878,293.085L962.506,293.085C972.229,293.085 980.111,285.203 980.111,275.481L980.111,268.994C980.111,259.271 972.229,251.389 962.506,251.389C958.763,251.389 955.811,251.382 953.819,250.296C953.481,250.112 953,249.77 952.776,249.607C951.485,246.686 951.281,242.414 951.281,236.921L951.281,162.155C953.844,157.409 956.299,153.459 958.744,150.371C967.656,157.268 976.037,159.929 983.227,159.929C992.442,159.929 1000.42,156.582 1007.08,149.671C1013.42,143.086 1016.69,135.078 1016.69,125.567C1016.69,115.457 1012.86,106.413 1004.59,98.715C997.076,91.723 987.679,87.962 976.2,87.962C967.402,87.962 958.253,90.877 949.172,97.205C946.195,91.701 940.373,87.962 933.677,87.962L926.109,87.962C923.847,87.962 921.607,88.398 919.51,89.246L869.599,109.426C861.299,112.782 856.839,121.833 859.235,130.459L861.037,136.946C862.366,141.728 865.651,145.727 870.084,147.959C874.518,150.19 879.687,150.447 884.319,148.665C884.898,148.443 885.46,148.237 886.006,148.053Z" style="fill:rgb(7,73,87);"/>
            </g>
            <g transform="matrix(0.0650376,-0,-0,0.0650376,201.805,853.245)">
                <path d="M1173.08,216.302C1174.7,208.408 1170.75,200.426 1163.49,196.923L1158.27,194.4C1153.94,192.312 1148.95,192.082 1144.45,193.763C1139.95,195.444 1136.33,198.89 1134.44,203.303C1129.61,214.525 1125.14,222.574 1120.04,226.841C1119.98,226.89 1119.92,226.94 1119.86,226.99C1113.87,232.137 1107.15,234.812 1099.62,234.812C1089.3,234.812 1081.31,229.75 1075.25,220.299C1067.35,207.981 1063.53,193.737 1063.53,177.641C1063.53,163.01 1066.73,151.094 1074.09,142.188C1074.09,142.183 1074.1,142.177 1074.1,142.171C1077.98,137.463 1083.17,135.244 1089.53,135.244C1091.95,135.244 1094.02,135.205 1095.43,136.311C1096.5,137.351 1096.6,139.006 1096.78,140.895C1097.88,152.692 1101.19,160.391 1104.59,164.647C1111.36,173.19 1121.1,178.128 1134.39,178.128C1145,178.128 1153.02,174.656 1158.92,168.994C1165.27,162.903 1168.76,155.057 1168.76,145.207C1168.76,131.483 1162.16,117.593 1146.65,104.849C1133.25,93.835 1116.27,87.962 1095.48,87.962C1068.91,87.962 1046.1,97.83 1027.14,117.754C1008.71,137.117 999.13,162.156 999.13,193.136C999.13,224.901 1007.93,249.933 1024.46,268.593C1042.09,288.509 1062.93,298.13 1086.65,298.13C1106.66,298.13 1125.01,290.919 1141.51,276.025C1157,262.04 1167.78,242.265 1173.08,216.302Z" style="fill:rgb(168,184,191);"/>
            </g>
            <g transform="matrix(0.0650376,-0,-0,0.0650376,201.805,853.245)">
                <path d="M1267.54,87.962C1250.73,87.962 1234.8,92.307 1219.75,101.081C1204.74,109.839 1192.45,123.218 1183.25,141.543C1174.43,159.108 1170.12,176.802 1170.12,194.578C1170.12,219.229 1177.45,241.457 1192.13,261.265C1210.29,285.821 1234.75,298.13 1265.56,298.13C1284.22,298.13 1301.14,293.372 1316.35,283.967C1331.56,274.564 1343.65,260.737 1352.32,242.225C1360.58,224.579 1364.61,207.119 1364.61,189.893C1364.61,164.752 1356.89,142.495 1341.52,123.101C1341.51,123.087 1341.5,123.073 1341.49,123.06C1322.88,99.725 1298.26,87.962 1267.54,87.962ZM1261.96,134.883C1269.5,134.883 1275.55,138.463 1280.42,145.045C1280.44,145.076 1280.46,145.108 1280.49,145.139C1291.15,159.351 1295.89,178.999 1295.89,203.767C1295.89,221.92 1294.17,234.979 1288.31,242.426C1284.35,247.453 1279.4,250.128 1273.31,250.128C1263.77,250.128 1256.83,243.782 1251,233.142C1242.76,218.109 1238.84,200.178 1238.84,179.442C1238.84,167.327 1240.2,157.37 1243.43,149.651C1245.65,144.326 1248.09,140.248 1251.7,138.125C1255.15,136.091 1258.54,134.883 1261.96,134.883Z" style="fill:rgb(168,184,191);"/>
            </g>
            <g transform="matrix(0.0650376,-0,-0,0.0650376,201.805,853.245)">
                <path d="M1374.58,135.985C1375.98,136.739 1377.17,137.606 1378.1,138.689C1378.1,138.689 1378.1,138.689 1378.1,138.689C1379.66,140.522 1381.05,143.673 1382.77,147.885C1382.8,147.958 1382.83,148.03 1382.86,148.102L1441.78,287.385C1444.53,293.898 1450.92,298.13 1457.99,298.13L1465.38,298.13C1472.5,298.13 1478.92,293.836 1481.65,287.253L1540.21,145.628C1540.23,145.565 1540.26,145.502 1540.28,145.439C1542.05,141.03 1543.68,137.517 1545.74,135.233C1546.67,135.052 1548.34,134.749 1549.61,134.651C1558.79,133.946 1565.87,126.298 1565.87,117.099L1565.87,110.432C1565.87,100.709 1557.99,92.827 1548.26,92.827L1494.39,92.827C1484.67,92.827 1476.78,100.709 1476.78,110.432L1476.78,117.099C1476.78,126.301 1483.85,133.855 1492.85,134.636L1470.34,189.843C1470.34,189.843 1448.45,137.837 1448.45,137.837C1448.42,137.761 1448.39,137.686 1448.35,137.611C1447.91,136.589 1447.5,135.622 1447.16,134.703L1447.9,134.703C1457.62,134.703 1465.51,126.821 1465.51,117.099L1465.51,110.432C1465.51,100.709 1457.62,92.827 1447.9,92.827L1370.24,92.827C1360.52,92.827 1352.64,100.709 1352.64,110.432L1352.64,117.099C1352.64,125.748 1358.92,133.116 1367.46,134.482C1370.39,134.951 1373.89,135.812 1374.58,135.985Z" style="fill:rgb(168,184,191);"/>
            </g>
            <g transform="matrix(0.0650376,-0,-0,0.0650376,201.805,853.245)">
                <path d="M1617.2,190.2L1712.4,190.2C1722.13,190.2 1730.01,182.318 1730.01,172.595C1730.01,146.973 1722.09,126.681 1707.17,111.383C1691.97,95.796 1672.63,87.782 1648.98,87.782C1621.9,87.782 1599.42,97.622 1581.49,117.187C1564.37,135.88 1555.16,161.714 1555.16,195.118C1555.16,226.233 1564.09,250.827 1580.94,269.252C1598.64,288.606 1619.98,298.13 1644.84,298.13C1668.34,298.13 1687.9,289.415 1703.52,272.016C1718.09,255.786 1726.78,237.731 1729.81,217.966C1730.86,211.106 1727.78,204.268 1721.95,200.506L1716.36,196.902C1711.89,194.015 1706.35,193.309 1701.29,194.982C1696.23,196.655 1692.2,200.527 1690.34,205.514C1686.39,216.022 1682.04,223.78 1676.22,228.115C1671.22,231.835 1665.29,233.551 1658.53,233.551C1647.35,233.551 1637.8,228.368 1629.52,218.76C1623.03,211.228 1619.05,201.668 1617.2,190.2L1617.2,190.2ZM1653.61,144.54C1652.17,142.179 1650.3,140.231 1647.98,138.73C1645.07,136.848 1642.07,135.784 1638.89,135.784C1633.48,135.784 1628.75,138.141 1624.48,142.345C1623.78,143.037 1623.13,143.769 1622.52,144.54L1622.52,144.54L1653.61,144.54Z" style="fill:rgb(168,184,191);"/>
            </g>
            <g transform="matrix(0.0650376,-0,-0,0.0650376,201.805,853.245)">
                <path d="M1742.39,148.053C1742.68,153.202 1742.72,161.985 1742.72,174.397L1742.72,238.363C1742.72,243.414 1742.47,248.681 1742.36,250.817C1740.4,251.48 1737.7,251.389 1734.38,251.389C1724.66,251.389 1716.78,259.271 1716.78,268.994L1716.78,275.481C1716.78,285.203 1724.66,293.085 1734.38,293.085L1818.89,293.085C1828.61,293.085 1836.49,285.203 1836.49,275.481L1836.49,268.994C1836.49,259.271 1828.61,251.389 1818.89,251.389C1815.14,251.389 1812.19,251.382 1810.2,250.296C1809.86,250.112 1809.38,249.77 1809.16,249.607C1807.87,246.686 1807.66,242.414 1807.66,236.921L1807.66,162.155C1810.22,157.409 1812.68,153.459 1815.12,150.371C1824.04,157.268 1832.42,159.929 1839.61,159.929C1848.82,159.929 1856.8,156.582 1863.46,149.671C1869.8,143.086 1873.07,135.078 1873.07,125.567C1873.07,115.457 1869.24,106.413 1860.97,98.715C1853.46,91.723 1844.06,87.962 1832.58,87.962C1823.78,87.962 1814.63,90.877 1805.55,97.205C1802.58,91.701 1796.75,87.962 1790.06,87.962L1782.49,87.962C1780.23,87.962 1777.99,88.398 1775.89,89.246L1725.98,109.426C1717.68,112.782 1713.22,121.833 1715.62,130.459L1717.42,136.946C1718.75,141.728 1722.03,145.727 1726.46,147.959C1730.9,150.19 1736.07,150.447 1740.7,148.665C1741.28,148.443 1741.84,148.237 1742.39,148.053Z" style="fill:rgb(168,184,191);"/>
            </g>
        </g>
    </g>
    <g transform="matrix(15.3757,0,0,15.3757,-3102.91,-13119.3)">
        <g transform="matrix(24,0,0,24,210.067,871.162)">
            <path d="M0.423,-0.447L0.423,-0.176C0.423,-0.125 0.425,-0.093 0.427,-0.081C0.429,-0.07 0.433,-0.062 0.439,-0.057C0.444,-0.053 0.45,-0.05 0.458,-0.05C0.468,-0.05 0.479,-0.053 0.492,-0.059L0.499,-0.042L0.365,0.014L0.343,0.014L0.343,-0.081C0.304,-0.039 0.275,-0.013 0.255,-0.002C0.235,0.008 0.213,0.014 0.191,0.014C0.166,0.014 0.144,0.006 0.126,-0.008C0.107,-0.023 0.095,-0.041 0.087,-0.064C0.08,-0.087 0.077,-0.119 0.077,-0.161L0.077,-0.36C0.077,-0.382 0.074,-0.396 0.07,-0.404C0.065,-0.412 0.059,-0.419 0.05,-0.423C0.041,-0.427 0.024,-0.43 0.001,-0.429L0.001,-0.447L0.158,-0.447L0.158,-0.148C0.158,-0.106 0.165,-0.079 0.179,-0.066C0.194,-0.053 0.211,-0.046 0.232,-0.046C0.246,-0.046 0.262,-0.051 0.28,-0.06C0.297,-0.068 0.318,-0.085 0.343,-0.11L0.343,-0.363C0.343,-0.389 0.338,-0.406 0.329,-0.415C0.32,-0.424 0.3,-0.429 0.271,-0.429L0.271,-0.447L0.423,-0.447Z" style="fill:rgb(168,184,191);fill-rule:nonzero;"/>
        </g>
        <g transform="matrix(24,0,0,24,222.547,871.162)">
            <path d="M0.162,-0.366C0.214,-0.429 0.264,-0.46 0.312,-0.46C0.336,-0.46 0.357,-0.454 0.375,-0.442C0.392,-0.43 0.406,-0.41 0.417,-0.382C0.424,-0.362 0.427,-0.332 0.427,-0.292L0.427,-0.101C0.427,-0.073 0.43,-0.054 0.434,-0.043C0.438,-0.035 0.443,-0.029 0.451,-0.024C0.459,-0.02 0.474,-0.018 0.496,-0.018L0.496,-0L0.274,-0L0.274,-0.018L0.284,-0.018C0.305,-0.018 0.319,-0.021 0.327,-0.027C0.336,-0.033 0.341,-0.043 0.345,-0.055C0.346,-0.06 0.347,-0.075 0.347,-0.101L0.347,-0.284C0.347,-0.325 0.341,-0.354 0.331,-0.373C0.32,-0.391 0.302,-0.4 0.277,-0.4C0.239,-0.4 0.2,-0.379 0.162,-0.337L0.162,-0.101C0.162,-0.071 0.163,-0.052 0.167,-0.045C0.172,-0.035 0.178,-0.029 0.186,-0.024C0.194,-0.02 0.21,-0.018 0.234,-0.018L0.234,-0L0.013,-0L0.013,-0.018L0.023,-0.018C0.046,-0.018 0.061,-0.023 0.069,-0.035C0.077,-0.046 0.081,-0.069 0.081,-0.101L0.081,-0.267C0.081,-0.321 0.08,-0.354 0.077,-0.365C0.075,-0.377 0.071,-0.385 0.066,-0.389C0.061,-0.393 0.054,-0.396 0.046,-0.396C0.037,-0.396 0.026,-0.393 0.013,-0.388L0.006,-0.406L0.141,-0.46L0.162,-0.46L0.162,-0.366Z" style="fill:rgb(168,184,191);fill-rule:nonzero;"/>
        </g>
        <g transform="matrix(24,0,0,24,235.027,871.162)">
            <path d="M0.347,-0.05C0.325,-0.028 0.304,-0.011 0.283,-0.001C0.262,0.009 0.24,0.014 0.216,0.014C0.167,0.014 0.124,-0.007 0.088,-0.048C0.051,-0.088 0.033,-0.141 0.033,-0.205C0.033,-0.269 0.053,-0.328 0.094,-0.381C0.134,-0.434 0.186,-0.461 0.25,-0.461C0.289,-0.461 0.321,-0.448 0.347,-0.423L0.347,-0.506C0.347,-0.557 0.346,-0.588 0.344,-0.6C0.341,-0.612 0.337,-0.62 0.332,-0.624C0.327,-0.628 0.32,-0.63 0.313,-0.63C0.304,-0.63 0.293,-0.628 0.279,-0.623L0.272,-0.64L0.406,-0.694L0.428,-0.694L0.428,-0.177C0.428,-0.125 0.429,-0.093 0.431,-0.081C0.434,-0.07 0.438,-0.062 0.443,-0.057C0.448,-0.053 0.455,-0.05 0.462,-0.05C0.471,-0.05 0.482,-0.053 0.497,-0.059L0.502,-0.042L0.37,0.014L0.347,0.014L0.347,-0.05ZM0.347,-0.084L0.347,-0.315C0.345,-0.337 0.339,-0.357 0.33,-0.375C0.32,-0.394 0.307,-0.407 0.291,-0.417C0.275,-0.426 0.259,-0.431 0.244,-0.431C0.215,-0.431 0.189,-0.418 0.167,-0.392C0.137,-0.358 0.123,-0.309 0.123,-0.244C0.123,-0.178 0.137,-0.128 0.166,-0.093C0.194,-0.058 0.226,-0.04 0.261,-0.04C0.291,-0.04 0.319,-0.055 0.347,-0.084Z" style="fill:rgb(168,184,191);fill-rule:nonzero;"/>
        </g>
        <g transform="matrix(24,0,0,24,247.507,871.162)">
            <path d="M0.106,-0.279C0.106,-0.212 0.122,-0.16 0.155,-0.123C0.187,-0.085 0.226,-0.066 0.27,-0.066C0.299,-0.066 0.324,-0.074 0.346,-0.09C0.368,-0.106 0.386,-0.134 0.4,-0.173L0.416,-0.163C0.409,-0.118 0.389,-0.078 0.356,-0.041C0.323,-0.005 0.282,0.014 0.232,0.014C0.179,0.014 0.133,-0.007 0.094,-0.049C0.056,-0.091 0.037,-0.147 0.037,-0.218C0.037,-0.294 0.057,-0.354 0.096,-0.397C0.135,-0.44 0.184,-0.461 0.244,-0.461C0.294,-0.461 0.335,-0.444 0.367,-0.411C0.399,-0.378 0.416,-0.334 0.416,-0.279L0.106,-0.279ZM0.106,-0.307L0.313,-0.307C0.312,-0.336 0.308,-0.356 0.303,-0.368C0.295,-0.386 0.283,-0.4 0.267,-0.411C0.251,-0.421 0.234,-0.426 0.216,-0.426C0.189,-0.426 0.165,-0.416 0.144,-0.395C0.122,-0.374 0.11,-0.345 0.106,-0.307Z" style="fill:rgb(168,184,191);fill-rule:nonzero;"/>
        </g>
        <g transform="matrix(24,0,0,24,258.639,871.162)">
            <path d="M0.162,-0.46L0.162,-0.36C0.2,-0.427 0.238,-0.46 0.277,-0.46C0.295,-0.46 0.31,-0.455 0.322,-0.444C0.333,-0.433 0.339,-0.421 0.339,-0.406C0.339,-0.394 0.335,-0.383 0.327,-0.374C0.318,-0.365 0.308,-0.361 0.296,-0.361C0.285,-0.361 0.272,-0.366 0.258,-0.378C0.244,-0.389 0.233,-0.395 0.227,-0.395C0.221,-0.395 0.214,-0.391 0.208,-0.385C0.193,-0.371 0.178,-0.349 0.162,-0.319L0.162,-0.104C0.162,-0.08 0.165,-0.061 0.171,-0.048C0.176,-0.04 0.183,-0.032 0.194,-0.026C0.205,-0.021 0.22,-0.018 0.24,-0.018L0.24,-0L0.011,-0L0.011,-0.018C0.034,-0.018 0.051,-0.021 0.062,-0.028C0.07,-0.034 0.076,-0.042 0.079,-0.053C0.081,-0.059 0.082,-0.075 0.082,-0.101L0.082,-0.274C0.082,-0.326 0.08,-0.357 0.078,-0.367C0.076,-0.377 0.072,-0.384 0.067,-0.389C0.061,-0.393 0.054,-0.396 0.045,-0.396C0.035,-0.396 0.024,-0.393 0.011,-0.388L0.006,-0.406L0.142,-0.46L0.162,-0.46Z" style="fill:rgb(168,184,191);fill-rule:nonzero;"/>
        </g>
        <g transform="matrix(24,0,0,24,267.111,871.162)">
            <path d="M0.411,-0.17C0.399,-0.111 0.375,-0.066 0.34,-0.034C0.305,-0.002 0.266,0.014 0.224,0.014C0.173,0.014 0.129,-0.008 0.091,-0.05C0.053,-0.093 0.034,-0.151 0.034,-0.223C0.034,-0.293 0.055,-0.351 0.097,-0.395C0.139,-0.438 0.189,-0.46 0.248,-0.46C0.292,-0.46 0.328,-0.449 0.356,-0.426C0.384,-0.402 0.398,-0.378 0.398,-0.353C0.398,-0.341 0.394,-0.331 0.386,-0.323C0.378,-0.315 0.367,-0.312 0.353,-0.312C0.334,-0.312 0.319,-0.318 0.31,-0.33C0.304,-0.337 0.3,-0.35 0.299,-0.369C0.297,-0.388 0.29,-0.403 0.279,-0.413C0.267,-0.423 0.252,-0.428 0.231,-0.428C0.199,-0.428 0.173,-0.416 0.153,-0.392C0.126,-0.36 0.113,-0.318 0.113,-0.265C0.113,-0.212 0.126,-0.165 0.153,-0.124C0.179,-0.083 0.214,-0.063 0.259,-0.063C0.291,-0.063 0.319,-0.073 0.345,-0.095C0.363,-0.11 0.38,-0.137 0.397,-0.177L0.411,-0.17Z" style="fill:rgb(7,73,87);fill-rule:nonzero;"/>
        </g>
        <g transform="matrix(24,0,0,24,278.243,871.162)">
            <path d="M0.25,-0.46C0.318,-0.46 0.372,-0.435 0.413,-0.383C0.448,-0.339 0.465,-0.289 0.465,-0.232C0.465,-0.192 0.456,-0.151 0.437,-0.11C0.417,-0.069 0.391,-0.038 0.357,-0.018C0.323,0.003 0.286,0.014 0.245,0.014C0.177,0.014 0.124,-0.013 0.084,-0.067C0.05,-0.112 0.034,-0.163 0.034,-0.219C0.034,-0.26 0.044,-0.301 0.064,-0.342C0.085,-0.382 0.111,-0.412 0.145,-0.431C0.178,-0.451 0.213,-0.46 0.25,-0.46ZM0.235,-0.429C0.218,-0.429 0.2,-0.424 0.183,-0.413C0.165,-0.403 0.151,-0.385 0.141,-0.359C0.13,-0.334 0.125,-0.301 0.125,-0.26C0.125,-0.195 0.137,-0.139 0.163,-0.092C0.189,-0.045 0.223,-0.021 0.266,-0.021C0.297,-0.021 0.323,-0.034 0.344,-0.06C0.364,-0.086 0.375,-0.131 0.375,-0.194C0.375,-0.274 0.357,-0.336 0.323,-0.382C0.3,-0.413 0.271,-0.429 0.235,-0.429Z" style="fill:rgb(7,73,87);fill-rule:nonzero;"/>
        </g>
        <g transform="matrix(24,0,0,24,290.723,871.162)">
            <path d="M0.008,-0.447L0.219,-0.447L0.219,-0.429L0.205,-0.429C0.192,-0.429 0.183,-0.426 0.176,-0.42C0.169,-0.414 0.166,-0.405 0.166,-0.395C0.166,-0.384 0.169,-0.37 0.176,-0.354L0.28,-0.107L0.385,-0.364C0.392,-0.382 0.396,-0.396 0.396,-0.405C0.396,-0.41 0.395,-0.414 0.392,-0.417C0.389,-0.421 0.384,-0.425 0.378,-0.427C0.373,-0.428 0.362,-0.429 0.345,-0.429L0.345,-0.447L0.491,-0.447L0.491,-0.429C0.474,-0.428 0.462,-0.424 0.456,-0.419C0.444,-0.409 0.434,-0.393 0.425,-0.37L0.266,0.014L0.246,0.014L0.086,-0.364C0.079,-0.381 0.072,-0.394 0.066,-0.402C0.059,-0.409 0.051,-0.416 0.041,-0.421C0.035,-0.424 0.025,-0.427 0.008,-0.429L0.008,-0.447Z" style="fill:rgb(7,73,87);fill-rule:nonzero;"/>
        </g>
        <g transform="matrix(24,0,0,24,303.203,871.162)">
            <path d="M0.106,-0.279C0.106,-0.212 0.122,-0.16 0.155,-0.123C0.187,-0.085 0.226,-0.066 0.27,-0.066C0.299,-0.066 0.324,-0.074 0.346,-0.09C0.368,-0.106 0.386,-0.134 0.4,-0.173L0.416,-0.163C0.409,-0.118 0.389,-0.078 0.356,-0.041C0.323,-0.005 0.282,0.014 0.232,0.014C0.179,0.014 0.133,-0.007 0.094,-0.049C0.056,-0.091 0.037,-0.147 0.037,-0.218C0.037,-0.294 0.057,-0.354 0.096,-0.397C0.135,-0.44 0.184,-0.461 0.244,-0.461C0.294,-0.461 0.335,-0.444 0.367,-0.411C0.399,-0.378 0.416,-0.334 0.416,-0.279L0.106,-0.279ZM0.106,-0.307L0.313,-0.307C0.312,-0.336 0.308,-0.356 0.303,-0.368C0.295,-0.386 0.283,-0.4 0.267,-0.411C0.251,-0.421 0.234,-0.426 0.216,-0.426C0.189,-0.426 0.165,-0.416 0.144,-0.395C0.122,-0.374 0.11,-0.345 0.106,-0.307Z" style="fill:rgb(7,73,87);fill-rule:nonzero;"/>
        </g>
        <g transform="matrix(24,0,0,24,314.336,871.162)">
            <path d="M0.162,-0.46L0.162,-0.36C0.2,-0.427 0.238,-0.46 0.277,-0.46C0.295,-0.46 0.31,-0.455 0.322,-0.444C0.333,-0.433 0.339,-0.421 0.339,-0.406C0.339,-0.394 0.335,-0.383 0.327,-0.374C0.318,-0.365 0.308,-0.361 0.296,-0.361C0.285,-0.361 0.272,-0.366 0.258,-0.378C0.244,-0.389 0.233,-0.395 0.227,-0.395C0.221,-0.395 0.214,-0.391 0.208,-0.385C0.193,-0.371 0.178,-0.349 0.162,-0.319L0.162,-0.104C0.162,-0.08 0.165,-0.061 0.171,-0.048C0.176,-0.04 0.183,-0.032 0.194,-0.026C0.205,-0.021 0.22,-0.018 0.24,-0.018L0.24,-0L0.011,-0L0.011,-0.018C0.034,-0.018 0.051,-0.021 0.062,-0.028C0.07,-0.034 0.076,-0.042 0.079,-0.053C0.081,-0.059 0.082,-0.075 0.082,-0.101L0.082,-0.274C0.082,-0.326 0.08,-0.357 0.078,-0.367C0.076,-0.377 0.072,-0.384 0.067,-0.389C0.061,-0.393 0.054,-0.396 0.045,-0.396C0.035,-0.396 0.024,-0.393 0.011,-0.388L0.006,-0.406L0.142,-0.46L0.162,-0.46Z" style="fill:rgb(7,73,87);fill-rule:nonzero;"/>
        </g>
    </g>
</svg>
